# Blender v2.78 (sub 0) OBJ File: 'ВСЕ ВМЕСТЕ.blend'
# www.blender.org
mtllib plas.mtl
o Cube.004_Cube.002
v 0.112712 0.120005 0.003482
v 0.112712 0.297756 0.003482
v 0.112712 0.120005 -0.001831
v 0.112712 0.297756 -0.001831
v -0.109746 0.120005 0.003482
v -0.109746 0.297756 0.003482
v -0.109746 0.120005 -0.001831
v -0.109746 0.297756 -0.001831
v 0.010249 0.010901 0.001007
v 0.010249 0.131984 0.001007
v 0.010054 0.131984 -0.000576
v 0.010054 0.010901 -0.000576
v 0.009474 0.131984 -0.002092
v 0.009474 0.010901 -0.002092
v 0.008535 0.131984 -0.003483
v 0.008535 0.010901 -0.003483
v 0.007269 0.131984 -0.004706
v 0.007269 0.010901 -0.004706
v 0.005726 0.131984 -0.005711
v 0.005726 0.010901 -0.005711
v 0.003965 0.131984 -0.006457
v 0.003965 0.010901 -0.006457
v 0.002056 0.131984 -0.006917
v 0.002056 0.010901 -0.006917
v 0.000071 0.131984 -0.007076
v 0.000071 0.010901 -0.007076
v -0.001916 0.131984 -0.006917
v -0.001916 0.010901 -0.006917
v -0.003825 0.131984 -0.006457
v -0.003825 0.010901 -0.006457
v -0.005586 0.131984 -0.005711
v -0.005586 0.010901 -0.005711
v -0.007130 0.131984 -0.004706
v -0.007130 0.010901 -0.004706
v -0.008396 0.131984 -0.003483
v -0.008396 0.010901 -0.003483
v -0.009335 0.131984 -0.002092
v -0.009335 0.010901 -0.002092
v -0.009914 0.131984 -0.000576
v -0.009914 0.010901 -0.000576
v -0.010109 0.131984 0.001007
v -0.010109 0.010901 0.001007
v -0.009914 0.131984 0.002582
v -0.009914 0.010901 0.002582
v -0.009335 0.131984 0.004098
v -0.009335 0.010901 0.004098
v -0.008396 0.131984 0.005489
v -0.008396 0.010901 0.005489
v -0.007130 0.131984 0.006712
v -0.007130 0.010901 0.006712
v -0.005586 0.131984 0.007717
v -0.005586 0.010901 0.007717
v -0.003825 0.131984 0.008463
v -0.003825 0.010901 0.008463
v -0.001916 0.131984 0.008923
v -0.001916 0.010901 0.008923
v 0.000071 0.131984 0.009082
v 0.000071 0.010901 0.009082
v 0.002056 0.131984 0.008923
v 0.002056 0.010901 0.008923
v 0.003965 0.131984 0.008463
v 0.003965 0.010901 0.008463
v 0.005726 0.131984 0.007717
v 0.005726 0.010901 0.007717
v 0.007269 0.131984 0.006712
v 0.007269 0.010901 0.006712
v 0.008535 0.131984 0.005489
v 0.008535 0.010901 0.005489
v 0.009474 0.131984 0.004098
v 0.009474 0.010901 0.004098
v 0.010054 0.131984 0.002582
v 0.010054 0.010901 0.002582
vt 0.0000 0.0000
vt 1.0000 0.0000
vt 1.0000 1.0000
vt 0.0000 1.0000
vt 0.0000 0.0000
vt 1.0000 0.0000
vt 1.0000 1.0000
vt 0.0000 1.0000
vt 0.0000 0.0000
vt 1.0000 0.0000
vt 1.0000 1.0000
vt 0.0000 1.0000
vt 0.0000 0.0000
vt 1.0000 0.0000
vt 1.0000 1.0000
vt 0.0000 1.0000
vt 1.0000 0.0000
vt 1.0000 1.0000
vt 0.0000 0.0000
vt 0.0000 1.0000
vt 0.0000 0.0000
vt 0.0000 0.0000
vt 0.0000 0.0000
vt 0.0000 0.0000
vt 0.0000 0.0000
vt 0.0000 0.0000
vt 0.0000 0.0000
vt 0.0000 0.0000
vt 0.0000 0.0000
vt 0.0000 0.0000
vt 0.0000 0.0000
vt 0.0000 0.0000
vt 0.0000 0.0000
vt 0.0000 0.0000
vt 0.0000 0.0000
vt 0.0000 0.0000
vt 0.0000 0.0000
vt 0.0000 0.0000
vt 0.0000 0.0000
vt 0.0000 0.0000
vt 0.0000 0.0000
vt 0.0000 0.0000
vt 0.0000 0.0000
vt 0.0000 0.0000
vt 0.0000 0.0000
vt 0.0000 0.0000
vt 0.0000 0.0000
vt 0.0000 0.0000
vt 0.0000 0.0000
vt 0.0000 0.0000
vt 0.0000 0.0000
vt 0.0000 0.0000
vt 0.0000 0.0000
vt 0.0000 0.0000
vt 0.0000 0.0000
vt 0.0000 0.0000
vt 0.0000 0.0000
vt 0.0000 0.0000
vt 0.0000 0.0000
vt 0.0000 0.0000
vt 0.0000 0.0000
vt 0.0000 0.0000
vt 0.0000 0.0000
vt 0.0000 0.0000
vt 0.0000 0.0000
vt 0.0000 0.0000
vt 0.0000 0.0000
vt 0.0000 0.0000
vt 0.0000 0.0000
vt 0.0000 0.0000
vt 0.0000 0.0000
vt 0.0000 0.0000
vt 0.0000 0.0000
vt 0.0000 0.0000
vt 0.0000 0.0000
vt 0.0000 0.0000
vt 0.0000 0.0000
vt 0.0000 0.0000
vt 0.0000 0.0000
vt 0.0000 0.0000
vt 0.0000 0.0000
vt 0.0000 0.0000
vt 0.0000 0.0000
vt 0.0000 0.0000
vn -1.0000 0.0000 0.0000
vn -0.0000 0.0000 1.0000
vn 1.0000 -0.0000 0.0000
vn -0.0000 0.0000 -1.0000
vn 0.0000 1.0000 0.0000
vn 0.0000 -1.0000 0.0000
vn -0.9922 0.0000 0.1243
vn -0.9341 0.0000 0.3571
vn -0.8292 -0.0000 0.5589
vn -0.6950 -0.0000 0.7190
vn -0.5457 0.0000 0.8380
vn -0.3899 0.0000 0.9209
vn -0.2343 0.0000 0.9722
vn -0.0794 0.0000 0.9968
vn 0.0791 -0.0000 0.9969
vn 0.2346 0.0000 0.9721
vn 0.3899 0.0000 0.9209
vn 0.5457 0.0000 0.8380
vn 0.6947 0.0000 0.7193
vn 0.8293 0.0000 0.5588
vn 0.9341 0.0000 0.3571
vn 0.9922 -0.0000 0.1244
vn 0.9923 0.0000 -0.1235
vn 0.9341 0.0000 -0.3571
vn 0.8293 -0.0000 -0.5588
vn 0.6947 0.0000 -0.7193
vn 0.5457 0.0000 -0.8380
vn 0.3899 0.0000 -0.9209
vn 0.2346 0.0000 -0.9721
vn 0.0791 0.0000 -0.9969
vn -0.0794 -0.0000 -0.9968
vn -0.2343 -0.0000 -0.9722
vn -0.3898 0.0000 -0.9209
vn -0.5457 0.0000 -0.8380
vn -0.6951 0.0000 -0.7190
vn -0.8292 0.0000 -0.5590
vn -0.9341 0.0000 -0.3571
vn -0.9924 -0.0000 -0.1234
usemtl Material.055
s off
f 1/1/1 2/2/1 4/3/1 3/4/1
f 3/5/2 4/6/2 8/7/2 7/8/2
f 7/9/3 8/10/3 6/11/3 5/12/3
f 5/13/4 6/14/4 2/15/4 1/16/4
f 3/5/5 7/17/5 5/18/5 1/16/5
f 8/19/6 4/6/6 2/15/6 6/20/6
usemtl Material.051
s 1
f 9/21/7 10/22/7 11/23/7 12/24/7
f 12/24/8 11/23/8 13/25/8 14/26/8
f 14/26/9 13/25/9 15/27/9 16/28/9
f 16/28/10 15/27/10 17/29/10 18/30/10
f 18/30/11 17/29/11 19/31/11 20/32/11
f 20/32/12 19/31/12 21/33/12 22/34/12
f 22/34/13 21/33/13 23/35/13 24/36/13
f 24/36/14 23/35/14 25/37/14 26/38/14
f 26/38/15 25/37/15 27/39/15 28/40/15
f 28/40/16 27/39/16 29/41/16 30/42/16
f 30/42/17 29/41/17 31/43/17 32/44/17
f 32/44/18 31/43/18 33/45/18 34/46/18
f 34/46/19 33/45/19 35/47/19 36/48/19
f 36/48/20 35/47/20 37/49/20 38/50/20
f 38/50/21 37/49/21 39/51/21 40/52/21
f 40/52/22 39/51/22 41/53/22 42/54/22
f 42/54/23 41/53/23 43/55/23 44/56/23
f 44/56/24 43/55/24 45/57/24 46/58/24
f 46/58/25 45/57/25 47/59/25 48/60/25
f 48/60/26 47/59/26 49/61/26 50/62/26
f 50/62/27 49/61/27 51/63/27 52/64/27
f 52/64/28 51/63/28 53/65/28 54/66/28
f 54/66/29 53/65/29 55/67/29 56/68/29
f 56/68/30 55/67/30 57/69/30 58/70/30
f 58/70/31 57/69/31 59/71/31 60/72/31
f 60/72/32 59/71/32 61/73/32 62/74/32
f 62/74/33 61/73/33 63/75/33 64/76/33
f 64/76/34 63/75/34 65/77/34 66/78/34
f 66/78/35 65/77/35 67/79/35 68/80/35
f 68/80/36 67/79/36 69/81/36 70/82/36
f 11/23/6 10/22/6 71/83/6 69/81/6 67/79/6 65/77/6 63/75/6 61/73/6 59/71/6 57/69/6 55/67/6 53/65/6 51/63/6 49/61/6 47/59/6 45/57/6 43/55/6 41/53/6 39/51/6 37/49/6 35/47/6 33/45/6 31/43/6 29/41/6 27/39/6 25/37/6 23/35/6 21/33/6 19/31/6 17/29/6 15/27/6 13/25/6
f 70/82/37 69/81/37 71/83/37 72/84/37
f 72/84/38 71/83/38 10/22/38 9/21/38
f 9/21/5 12/24/5 14/26/5 16/28/5 18/30/5 20/32/5 22/34/5 24/36/5 26/38/5 28/40/5 30/42/5 32/44/5 34/46/5 36/48/5 38/50/5 40/52/5 42/54/5 44/56/5 46/58/5 48/60/5 50/62/5 52/64/5 54/66/5 56/68/5 58/70/5 60/72/5 62/74/5 64/76/5 66/78/5 68/80/5 70/82/5 72/84/5
