# Blender v2.78 (sub 0) OBJ File: 'ВСЕ ВМЕСТЕ.blend'
# www.blender.org
mtllib rope.mtl
o Цилиндр_Цилиндр.000
v -0.000214 0.004590 -0.001570
v -0.000214 -0.572170 -0.001570
v 0.000232 -0.572170 -0.001573
v 0.000232 0.004590 -0.001573
v 0.000658 -0.572170 -0.001583
v 0.000658 0.004590 -0.001583
v 0.001054 -0.572170 -0.001600
v 0.001054 0.004590 -0.001600
v 0.001398 -0.572170 -0.001621
v 0.001398 0.004590 -0.001621
v 0.001682 -0.572170 -0.001644
v 0.001682 0.004590 -0.001644
v 0.001892 -0.572170 -0.001675
v 0.001892 0.004590 -0.001675
v 0.002024 -0.572170 -0.001709
v 0.002024 0.004590 -0.001708
v 0.002068 -0.572170 -0.001739
v 0.002068 0.004590 -0.001739
v 0.002024 -0.572170 -0.001773
v 0.002024 0.004590 -0.001772
v 0.001892 -0.572170 -0.001806
v 0.001892 0.004590 -0.001806
v 0.001682 -0.572170 -0.001833
v 0.001682 0.004590 -0.001833
v 0.001398 -0.572170 -0.001860
v 0.001398 0.004590 -0.001860
v 0.001054 -0.572170 -0.001881
v 0.001054 0.004590 -0.001880
v 0.000658 -0.572170 -0.001897
v 0.000658 0.004590 -0.001897
v 0.000232 -0.572170 -0.001908
v 0.000232 0.004590 -0.001908
v -0.000214 -0.572170 -0.001911
v -0.000214 0.004590 -0.001911
v -0.000660 -0.572170 -0.001908
v -0.000660 0.004590 -0.001908
v -0.001086 -0.572170 -0.001897
v -0.001086 0.004590 -0.001897
v -0.001481 -0.572170 -0.001881
v -0.001481 0.004590 -0.001880
v -0.001826 -0.572170 -0.001860
v -0.001826 0.004590 -0.001860
v -0.002110 -0.572170 -0.001833
v -0.002110 0.004590 -0.001833
v -0.002319 -0.572170 -0.001806
v -0.002319 0.004590 -0.001806
v -0.002451 -0.572170 -0.001773
v -0.002451 0.004590 -0.001772
v -0.002495 -0.572170 -0.001739
v -0.002495 0.004590 -0.001739
v -0.002451 -0.572170 -0.001709
v -0.002451 0.004590 -0.001708
v -0.002319 -0.572170 -0.001675
v -0.002319 0.004590 -0.001675
v -0.002110 -0.572170 -0.001644
v -0.002110 0.004590 -0.001644
v -0.001826 -0.572170 -0.001621
v -0.001826 0.004590 -0.001621
v -0.001481 -0.572170 -0.001600
v -0.001481 0.004590 -0.001600
v -0.001086 -0.572170 -0.001583
v -0.001086 0.004590 -0.001583
v -0.000660 -0.572170 -0.001573
v -0.000660 0.004590 -0.001573
vn 0.0071 -0.0000 1.0000
vn 0.0231 -0.0000 0.9997
vn 0.0391 -0.0000 0.9992
vn 0.0609 -0.0000 0.9981
vn 0.0914 -0.0000 0.9958
vn 0.1370 -0.0000 0.9906
vn 0.2421 -0.0000 0.9702
vn 0.6002 -0.0000 0.7998
vn 0.6003 0.0000 0.7998
vn 0.6012 -0.0000 -0.7991
vn 0.2421 0.0000 -0.9702
vn 0.1379 -0.0000 -0.9904
vn 0.0907 0.0000 -0.9959
vn 0.0607 0.0000 -0.9982
vn 0.0399 0.0000 -0.9992
vn 0.0224 0.0000 -0.9997
vn 0.0067 0.0000 -1.0000
vn -0.0067 0.0000 -1.0000
vn -0.0224 -0.0000 -0.9997
vn -0.0399 0.0000 -0.9992
vn -0.0608 0.0000 -0.9981
vn -0.0907 -0.0000 -0.9959
vn -0.1379 0.0000 -0.9904
vn -0.2421 0.0000 -0.9702
vn -0.6012 -0.0000 -0.7991
vn -0.6003 -0.0000 0.7998
vn -0.6002 -0.0000 0.7998
vn -0.2421 -0.0000 0.9702
vn -0.1370 -0.0000 0.9906
vn -0.0914 -0.0000 0.9958
vn -0.0612 -0.0000 0.9981
vn -0.0391 -0.0000 0.9992
vn 0.0000 -1.0000 0.0001
vn -0.0231 -0.0000 0.9997
vn -0.0071 -0.0000 1.0000
vn 0.0000 1.0000 -0.0000
usemtl Материал.001
s 1
f 1//1 2//1 3//1 4//1
f 4//2 3//2 5//2 6//2
f 6//3 5//3 7//3 8//3
f 8//4 7//4 9//4 10//4
f 10//5 9//5 11//5 12//5
f 12//6 11//6 13//6 14//6
f 14//7 13//7 15//7 16//7
f 16//8 15//8 17//9 18//9
f 18//10 17//10 19//10 20//10
f 20//11 19//11 21//11 22//11
f 22//12 21//12 23//12 24//12
f 24//13 23//13 25//13 26//13
f 26//14 25//14 27//14 28//14
f 28//15 27//15 29//15 30//15
f 30//16 29//16 31//16 32//16
f 32//17 31//17 33//17 34//17
f 34//18 33//18 35//18 36//18
f 36//19 35//19 37//19 38//19
f 38//20 37//20 39//20 40//20
f 40//21 39//21 41//21 42//21
f 42//22 41//22 43//22 44//22
f 44//23 43//23 45//23 46//23
f 46//24 45//24 47//24 48//24
f 48//25 47//25 49//25 50//25
f 50//26 49//26 51//27 52//27
f 52//28 51//28 53//28 54//28
f 54//29 53//29 55//29 56//29
f 56//30 55//30 57//30 58//30
f 58//31 57//31 59//31 60//31
f 60//32 59//32 61//32 62//32
f 3//33 2//33 63//33 61//33 59//33 57//33 55//33 53//33 51//33 49//33 47//33 45//33 43//33 41//33 39//33 37//33 35//33 33//33 31//33 29//33 27//33 25//33 23//33 21//33 19//33 17//33 15//33 13//33 11//33 9//33 7//33 5//33
f 62//34 61//34 63//34 64//34
f 64//35 63//35 2//35 1//35
f 1//36 4//36 6//36 8//36 10//36 12//36 14//36 16//36 18//36 20//36 22//36 24//36 26//36 28//36 30//36 32//36 34//36 36//36 38//36 40//36 42//36 44//36 46//36 48//36 50//36 52//36 54//36 56//36 58//36 60//36 62//36 64//36
