# Blender v2.78 (sub 0) OBJ File: 'ВСЕ ВМЕСТЕ.blend'
# www.blender.org
mtllib tab.mtl
o Cube.004_Cube.004
v 0.552177 0.003275 -0.722214
v 0.552177 0.003275 0.736724
v -0.390347 0.003275 0.736724
v -0.390347 0.003275 -0.722214
v 0.552177 0.032217 -0.722214
v -0.390347 0.032217 -0.722214
v -0.390347 0.032220 0.736724
v 0.552177 0.032220 0.736724
vt 0.3505 0.7740
vt 0.3505 0.0000
vt 0.7011 0.0000
vt 0.7011 0.7740
vt 0.3505 0.7740
vt 0.0000 0.7740
vt 0.0000 0.0000
vt 0.3505 0.0000
vt 0.7118 0.0000
vt 0.7226 0.0000
vt 0.7226 0.7740
vt 0.7118 0.7740
vt 0.7226 0.0000
vt 0.7334 0.0000
vt 0.7334 0.5000
vt 0.7226 0.5000
vt 0.7118 0.0000
vt 0.7118 0.7740
vt 0.7226 0.5000
vt 0.7334 0.5000
vt 0.7334 1.0000
vt 0.7226 1.0000
vn 0.0000 -1.0000 -0.0000
vn 0.0000 1.0000 -0.0000
vn 1.0000 0.0000 0.0000
vn 0.0000 0.0000 1.0000
vn -1.0000 0.0000 0.0000
vn 0.0000 0.0000 -1.0000
usemtl Material.062
s 1
f 1/1/1 2/2/1 3/3/1 4/4/1
f 5/5/2 6/6/2 7/7/2 8/8/2
f 1/9/3 5/10/3 8/11/3 2/12/3
f 2/13/4 8/14/4 7/15/4 3/16/4
f 3/3/5 7/17/5 6/18/5 4/4/5
f 5/19/6 1/20/6 4/21/6 6/22/6
